<?xml version="1.0" standalone="no"?>
<!DOCTYPE svg PUBLIC "-//W3C//DTD SVG 1.1//EN" "http://www.w3.org/Graphics/SVG/1.1/DTD/svg11.dtd" >
<!--
2013-9-30: Created.
-->
<svg>
<metadata>
Created by iconfont
</metadata>
<defs>

<font id="iconfont" horiz-adv-x="1024" >
  <font-face
    font-family="iconfont"
    font-weight="500"
    font-stretch="normal"
    units-per-em="1024"
    ascent="896"
    descent="-128"
  />
    <missing-glyph />
    
    <glyph glyph-name="x" unicode="x" horiz-adv-x="1001"
d="M281 543q-27 -1 -53 -1h-83q-18 0 -36.5 -6t-32.5 -18.5t-23 -32t-9 -45.5v-76h912v41q0 16 -0.5 30t-0.5 18q0 13 -5 29t-17 29.5t-31.5 22.5t-49.5 9h-133v-97h-438v97zM955 310v-52q0 -23 0.5 -52t0.5 -58t-10.5 -47.5t-26 -30t-33 -16t-31.5 -4.5q-14 -1 -29.5 -0.5
t-29.5 0.5h-32l-45 128h-439l-44 -128h-29h-34q-20 0 -45 1q-25 0 -41 9.5t-25.5 23t-13.5 29.5t-4 30v167h911zM163 247q-12 0 -21 -8.5t-9 -21.5t9 -21.5t21 -8.5q13 0 22 8.5t9 21.5t-9 21.5t-22 8.5zM316 123q-8 -26 -14 -48q-5 -19 -10.5 -37t-7.5 -25t-3 -15t1 -14.5
t9.5 -10.5t21.5 -4h37h67h81h80h64h36q23 0 34 12t2 38q-5 13 -9.5 30.5t-9.5 34.5q-5 19 -11 39h-368zM336 498v228q0 11 2.5 23t10 21.5t20.5 15.5t34 6h188q31 0 51.5 -14.5t20.5 -52.5v-227h-327z" />
    

    
    <glyph glyph-name="mima1" unicode="&#58961;" d="M743.279616-69.831936l0 77.094912L589.092864 7.262976l0 77.09184-38.546432 38.54848L512 161.449728l-77.092864 0 0 3.885056c-12.696576-1.83296-25.342976-3.885056-38.546432-3.885056-149.021696 0-269.826048 120.805376-269.826048 269.826048S247.339008 701.102848 396.35968 701.102848s269.826048-120.805376 269.826048-269.826048c0-41.603072-10.186752-80.507904-27.051008-115.64032l27.051008 0 231.279616-231.281664 0-154.186752L743.279616-69.831936zM357.813248 546.916096c-42.57792 0-77.092864-34.515968-77.092864-77.092864s34.515968-77.092864 77.092864-77.092864 77.092864 34.515968 77.092864 77.092864S400.391168 546.916096 357.813248 546.916096z"  horiz-adv-x="1024" />

    
    <glyph glyph-name="tuichu" unicode="&#59413;" d="M561.022507-65.775684 102.378715-65.775684 102.378715 668.05561l458.643792 0 0-183.457312 73.383334 0L634.405841 657.049952c0 46.594201-37.791721 84.387969-84.409458 84.387969L113.40484 741.437921c-46.616714 0-84.409458-37.793768-84.409458-84.387969l0-711.816908c0-46.599318 37.791721-84.392062 84.409458-84.392062l436.591543 0c46.616714 0 84.409458 37.793768 84.409458 84.392062L634.405841 117.682651l-73.383334 0L561.022507-65.775684zM949.127755 342.678008 790.161231 501.62202 745.396701 456.859537 864.443028 337.83163 505.985006 337.83163 505.985006 264.448296 870.88167 264.448296 745.396701 138.983793 790.161231 94.237683 960.39231 264.448296 993.871819 297.928828Z"  horiz-adv-x="1024" />

    
    <glyph glyph-name="icon1" unicode="&#58908;" d="M511.516488 623.189773c107.799168 0.008186 215.586057 0.057305 323.386248-0.064468 12.175297-0.00921 24.479531-0.106424 36.519752-1.684362 58.096163-7.620561 86.771249-39.300075 86.947258-97.91096 0.442068-145.756665 0.48607-291.5164 0.004093-437.269995-0.209778-63.47773-42.287105-106.854657-105.610316-107.041922-227.78796-0.666172-455.578989-0.729617-683.361833 0.049119-63.135946 0.214894-103.136985 40.647769-103.493096 103.552447-0.827855 145.070027-0.841158 290.154379-0.019443 435.230546 0.394996 70.491471 35.293831 104.588033 105.98587 104.972796C285.086455 623.636958 398.30403 623.184657 511.516488 623.189773L511.516488 623.189773zM413.221788 127.502297c0 28.831652 1.338485 55.258535-0.340761 81.489966-2.094708 32.743752-27.367301 62.495356-59.892065 65.032132-42.317805 3.294023-85.23322 3.338025-127.58377 0.378623-29.288047-2.043542-51.540863-22.057365-56.650231-50.819432-5.567809-31.28861-3.875261-63.871703-5.352915-96.081289C248.916674 127.502297 330.002434 127.502297 413.221788 127.502297L413.221788 127.502297zM365.008716 402.867856c-0.12689 41.776476-32.874735 74.106812-75.28873 74.320683-42.97886 0.218988-76.488045-32.900318-76.410274-75.5333 0.078795-42.3659 34.102702-76.020394 76.43381-75.615165C332.346829 326.444279 365.136629 359.912531 365.008716 402.867856L365.008716 402.867856zM660.388097 224.760388c39.32975 0 78.648244-0.212848 117.971855 0.089028 22.654976 0.165776 33.415041 8.754385 34.253128 26.051329 0.915859 18.865673-9.153474 29.965475-32.437783 30.18037-79.314417 0.748037-158.65237 0.757247-237.962693-0.094144-23.045879-0.242524-33.012881-11.612479-32.141024-30.587646 0.793062-17.483186 11.062963-25.433252 34.380018-25.575492C583.09164 224.586426 621.739868 224.760388 660.388097 224.760388L660.388097 224.760388zM660.767743 122.648756l0-0.146333c39.269375 0 78.544891-0.273223 117.816313 0.102331 22.562878 0.220011 33.771151 9.354042 34.048467 26.195615 0.272199 16.676821-11.316743 28.619828-32.282241 28.780487-79.880305 0.618077-159.773913 0.396019-239.657288-0.24764-7.388271-0.063445-17.73492-3.290953-21.38096-8.65717-5.075599-7.470135-9.81146-21.264303-6.204305-27.099195 5.387707-8.705266 17.929348-17.587564 27.853371-18.090007C580.809667 121.471954 620.8148 122.648756 660.767743 122.648756L660.767743 122.648756zM703.590038 325.8876c24.991184 0 49.988508-0.290619 74.973552 0.089028 21.107737 0.324388 34.326806 10.6782 33.936927 26.64894-0.515746 20.806885-16.328897 25.750477-32.272008 26.022677-51.987025 0.900509-104.013959 0.900509-156.002007-0.022513-20.070104-0.361227-33.015951-12.848633-30.957059-27.406187 2.65241-18.727527 15.651468-25.408693 33.313733-25.354458C652.254859 325.940812 677.922449 325.88453 703.590038 325.8876L703.590038 325.8876zM703.590038 325.8876"  horiz-adv-x="1024" />

    
    <glyph glyph-name="xitongguanli" unicode="&#58892;" d="M791.815405 271.830291c-4.748141 4.02978-7.199982 6.332219-9.873882 8.333806-27.51261 20.583804-37.411051 43.829228-32.05609 81.477686 19.638269 138.111544-92.257194 251.880681-205.15345 264.146029-142.41557 15.47546-259.608689-74.16207-277.688463-211.0436-21.587668-163.463955 122.725112-300.19506 285.032732-269.204232 18.226107 3.478218 30.532387-0.440022 42.468231-13.642718 8.450463-9.349949 19.11843-16.70445 32.320103-27.957749-37.172621-19.462261-37.70167-49.944506-35.750225-81.176834 1.918699-30.779004-3.76372-60.423161-34.372855-72.830749-33.403784-13.545504-71.250764-16.369829-102.455463 3.953032-14.341636 9.344832-21.757536 32.472576-27.450189 50.863435-4.313236 13.933337-0.673335 30.255071-1.027399 45.506427-0.556679 24.335245-11.675924 42.342364-34.217313 51.832506-22.508643 9.471722-43.12417 5.4225-60.805878-11.811-10.924817-10.648524-21.559015-21.611204-32.788777-31.936363-21.757536-19.993357-52.148707-25.826202-74.424037-9.605775-19.470447 14.179954-37.381375 31.997762-51.668777 51.387367-15.652492 21.248953-9.432837 54.061266 9.834996 74.65121 10.382465 11.114129 21.844517 21.228487 32.478715 32.120558 15.508205 15.876596 21.076014 35.085076 14.340613 56.139601-7.024997 21.941732-23.14821 35.647895-46.057989 38.664601-17.582447 2.316765-35.511795 1.851161-53.28253 2.738367-38.363749 1.908466-60.659545 24.203238-62.296835 62.661132-0.508583 11.845793-0.474814 23.743774-0.042979 35.593659 1.423419 39.638789 26.383904 64.149019 66.138326 65.025992 14.403035 0.315178 28.864398-0.566912 43.224454 0.281409 23.903409 1.404999 42.590004 12.509918 51.484581 35.085076 8.846482 22.444175 3.919263 43.228547-13.507642 60.567447-9.596566 9.558703-19.189038 19.135826-28.582989 28.90226-4.070712 4.234441-8.31027 8.547677-11.313673 13.522991-20.967544 34.731012-8.559956 69.272713 38.419008 107.826797 27.333532 22.435988 60.567447 21.322631 87.253226-3.270487 11.210319-10.337439 21.62553-21.538549 32.879851-31.819706 18.027585-16.486486 39.323611-20.11513 61.271482-10.617825 21.016663 9.087982 32.910551 25.800619 32.711006 49.884131-0.12996 16.089443-0.208754 32.241308 0.954745 48.272423 2.261507 31.138184 22.426779 55.434543 52.768831 59.765175 19.868513 2.833535 40.776705 2.799766 60.660568 0.033769 28.582989-3.977591 49.143257-29.286 50.699706-58.687634 0.900509-16.909112-0.775666-33.987069 0.595564-50.836829 1.923816-23.511483 12.68388-41.552371 35.942607-50.791803 23.458271-9.31618 43.035142-3.261277 60.34539 13.497409 7.306406 7.073092 14.161534 14.615882 21.355377 21.805632 4.787026 4.78805 9.471722 9.792017 14.81952 13.909801 33.970696 26.146497 71.807443 15.111163 112.648616-32.625048 24.891923-29.092595 23.240307-63.643506-4.113691-90.793866-10.813277-10.735505-22.183232-21.123087-31.635511-32.986275-14.746866-18.501376-19.678178-39.969317-8.629541-61.765739 10.348696-20.404726 28.327162-30.782074 51.684126-30.773887 14.412244 0.010233 28.849048 0.5137 43.223431-0.178055 34.290991-1.656733 58.839083-22.008246 63.08785-54.783721 2.373047-18.302855 2.393513-37.445844-0.077771-55.729256-4.399193-32.541137-29.978778-53.587476-63.165622-54.856375-10.159384-0.391926-20.396539-0.74599-30.511921 0.054235C831.11548 302.686043 809.275056 294.48322 791.815405 271.830291L791.815405 271.830291zM337.092923 428.599777c20.957311-21.976524 41.567721-44.290739 62.941518-65.849754 40.738843-41.097 93.705172-42.376133 132.943848-3.739161 40.481993 39.85266 39.86187 91.975784-2.581802 134.106324-21.627577 21.460778-44.658106 41.508369-65.141626 65.567321 54.80828 16.32685 104.45091 7.367805 148.920728-23.696702 70.480214-49.250704 96.79658-132.37489 68.042699-213.363436-5.474688-15.416108-0.914836-23.143093 8.837272-32.692586 52.676733-51.571562 105.284905-103.219873 157.394726-155.363464 29.901007-29.925566 28.327162-65.72798-2.873444-92.804662-25.125237-21.801539-56.45478-20.986987-81.948407 3.943822-52.723805 51.55212-105.060801 103.511515-156.801209 156.041916-12.019755 12.199856-21.413706 15.34857-39.140439 9.384741-69.40165-23.355941-132.691091-9.098215-185.580672 41.358967-49.687656 47.39545-64.687278 106.495476-52.579519 172.606173C332.049047 425.59535 334.57252 427.097564 337.092923 428.599777L337.092923 428.599777zM806.10076 118.990301c-17.546631-2.079358-29.39754-11.181667-30.985712-29.843702-1.449002-16.98586 14.267958-32.396851 31.533181-32.43062 17.519002-0.028653 32.038694 14.781658 31.035854 32.619932C836.604494 108.530065 824.981782 117.410316 806.10076 118.990301L806.10076 118.990301zM806.10076 118.990301"  horiz-adv-x="1024" />

    
    <glyph glyph-name="xitongcanshuguanli" unicode="&#58933;" d="M21.797115 604.763319l458.016778-250.042292c4.623224-2.505717 9.669949-3.740929 14.751966-3.740929 5.046725 0 10.058159 1.235212 14.646091 3.670346l462.851752 250.042292C982.157152 610.127671 988.439089 620.750498 988.297922 632.255619c-0.176459 11.540413-6.670147 21.986782-16.904765 27.209966L513.37638 892.673696c-8.752363 4.411473-19.057564 4.446765-27.845218 0.035292L22.714701 659.536169C12.480084 654.383568 5.915812 643.901908 5.704061 632.432078 5.527602 620.926957 11.738956 610.233546 21.797115 604.763319zM499.330249 830.418989l391.59764-199.327998-396.220863-214.009381L103.109386 630.808656 499.330249 830.418989zM966.09939 432.257077l-91.546889 46.585155L808.450989 443.126947l77.147841-39.244464-396.220863-214.009381L97.780327 403.564857l82.265149 41.432555-65.925053 36.032912-96.699489-48.737954c-10.269909-5.152601-16.834181-15.598969-16.975348-27.139382-0.176459-11.46983 5.999603-22.163241 16.093054-27.633467l458.05207-250.042292c4.587932-2.505717 9.669949-3.776221 14.751966-3.776221 5.046725 0 10.058159 1.235212 14.646091 3.705637l462.851752 250.042292c10.058159 5.434935 16.340096 16.057762 16.198929 27.562884C982.862987 416.587525 976.298715 427.033893 966.09939 432.257077zM966.09939 215.74198l-86.711914 42.738351-66.101512-35.715286 72.312866-35.39766-396.220863-214.044672L97.780327 187.120343l76.477297 34.656532-65.925053 35.99762-90.911637-41.92664c-10.269909-5.152601-16.834181-15.598969-16.975348-27.139382-0.176459-11.505122 5.999603-22.163241 16.093054-27.633467l458.05207-250.042292c4.587932-2.505717 9.669949-3.776221 14.751966-3.776221 5.046725 0 10.058159 1.235212 14.646091 3.705637l462.851752 250.042292c10.058159 5.434935 16.340096 16.057762 16.198929 27.562884C982.862987 200.107719 976.298715 210.554088 966.09939 215.74198z"  horiz-adv-x="1024" />

    
    <glyph glyph-name="mulu-copy" unicode="&#58881;" d="M959 712.96c-0.901-5.935-1.7-11.889-2.722-17.802-3.037-17.546-11.564-26.256-29.229-27.248-20.413-1.147-40.91-1.166-61.367-1.175-177.848-0.079-355.697-0.062-533.544-0.038-72.217 0.010-144.434 0.082-216.651 0.207-6.673 0.011-13.369 0.369-20.014 0.992-20.059 1.882-28.645 10.975-30.384 31.694-0.339 4.036-0.932 8.051-1.409 12.076 0 26.739 0 53.479 0 80.217 0.408 1.429 1.006 2.833 1.194 4.29 2.089 16.232 11.404 25.806 27.075 29.599 3.092 0.748 6.168 1.557 9.251 2.339 271.271 0 542.541 0 813.813 0 2.519-0.459 5.020-1.115 7.561-1.347 20.938-1.921 30.444-10.581 34.053-31.319 0.949-5.472 1.591-10.998 2.375-16.499-0.002-21.996-0.002-43.991-0.002-65.986zM959 349.398c-0.839-5.487-1.58-10.991-2.532-16.458-3.244-18.589-11.635-26.851-30.38-28.64-11.775-1.123-23.658-1.52-35.493-1.521-200.946-0.034-401.891 0.045-602.837 0.099-54.98 0.014-109.96-0.101-164.939 0.145-10.947 0.049-22.006 0.725-32.803 2.436-14.734 2.334-21.627 9.581-23.446 24.333-1.394 11.299-1.751 22.763-1.931 34.164-0.317 20.046-0.384 40.104-0.12 60.15 0.335 25.484 12.025 37.42 37.474 38.792 5.162 0.279 10.346 0.215 15.52 0.216 259.377 0.008 518.753 0.017 778.128-0.038 8.825-0.001 17.669-0.4 26.47-1.081 24.212-1.872 33.63-11.53 35.484-35.801 0.276-3.619 0.928-7.209 1.405-10.812 0-21.995 0-43.988 0-65.984zM63.679 55.701c0.844 5.718 1.501 11.471 2.568 17.146 2.747 14.63 10.064 21.775 24.841 23.97 5.947 0.882 12.006 1.423 18.014 1.424 267.72 0.063 535.438 0.057 803.157-0.008 5.364-0.001 10.765-0.528 16.082-1.271 18.302-2.55 27.276-13.042 29.247-33.723 0.322-3.39 0.934-6.751 1.411-10.127 0-22.856 0-45.714 0-68.572-0.484-3.585-1.075-7.159-1.438-10.758-2.074-20.55-11.225-30.474-30.508-33.067-2.735-0.368-5.441-0.966-8.163-1.457-271.7 0-543.401 0-815.104 0-2.951 0.48-5.888 1.104-8.857 1.421-18.357 1.952-26.175 9.112-28.765 27.302-1.268 8.908-1.684 17.936-2.486 26.91 0.001 20.271 0.001 40.541 0.001 60.81z"  horiz-adv-x="1024" />

    
    <glyph glyph-name="mulu1" unicode="&#58940;" d="M175.592692 757.804545c-41.321104 0-74.757634-33.508161-74.757634-74.757634 0-41.321104 33.43653-74.757634 74.757634-74.757634 41.24845 0 74.756611 33.43653 74.756611 74.757634C250.34828 724.296383 216.840118 757.804545 175.592692 757.804545zM175.592692 458.776054c-41.321104 0-74.757634-33.508161-74.757634-74.795497 0-41.24538 33.43653-74.756611 74.757634-74.756611 41.24845 0 74.756611 33.511231 74.756611 74.756611C250.34828 425.267892 216.840118 458.776054 175.592692 458.776054zM175.592692 159.709701c-41.321104 0-74.757634-33.435507-74.757634-74.757634 0-41.24845 33.43653-74.757634 74.757634-74.757634 41.24845 0 74.756611 33.509185 74.756611 74.757634C250.34828 126.274194 216.840118 159.709701 175.592692 159.709701zM904.476301 720.426239 381.175931 720.426239c-10.369162 0-18.691711-8.394181-18.691711-18.690688l0-37.378306c0-10.366092 8.322549-18.688641 18.691711-18.688641l523.30037 0c10.293437 0 18.687618 8.322549 18.687618 18.688641l0 37.378306C923.163919 712.031035 914.769738 720.426239 904.476301 720.426239zM904.476301 421.396725 381.175931 421.396725c-10.369162 0-18.691711-8.396227-18.691711-18.689664l0-37.413098c0-10.295484 8.322549-18.691711 18.691711-18.691711l523.30037 0c10.293437 0 18.687618 8.396227 18.687618 18.691711l0 37.413098C923.163919 413.000498 914.769738 421.396725 904.476301 421.396725zM904.476301 122.331395 381.175931 122.331395c-10.369162 0-18.691711-8.322549-18.691711-18.687618l0-37.378306c0-10.293437 8.322549-18.691711 18.691711-18.691711l523.30037 0c10.293437 0 18.687618 8.398274 18.687618 18.691711l0 37.378306C923.163919 114.008846 914.769738 122.331395 904.476301 122.331395z"  horiz-adv-x="1024" />

    
    <glyph glyph-name="mulu-copy1" unicode="&#58882;" d="M0-128v180.706h1144.471v-180.706h-1144.471zM0 474.353h1144.471v-180.706h-1144.471v180.706zM0 896h1144.471v-180.706h-1144.471v180.706z"  horiz-adv-x="1145" />

    
    <glyph glyph-name="catalog" unicode="&#59158;" d="M5.12 84.992l137.216 0 0-138.24-137.216 0 0 138.24ZM283.648 84.992l735.232 0 0-138.24-735.232 0 0 138.24ZM283.648 821.248l735.232 0 0-138.24-735.232 0 0 138.24ZM283.648 441.344l735.232 0 0-138.24-735.232 0 0 138.24ZM5.12 441.344l137.216 0 0-138.24-137.216 0 0 138.24ZM5.12 821.248l137.216 0 0-138.24-137.216 0 0 138.24Z"  horiz-adv-x="1024" />

    
    <glyph glyph-name="mulu" unicode="&#58886;" d="M0 896 1024 896 1024 715.294118 0 715.294118 0 896ZM0 474.352941 1024 474.352941 1024 293.647059 0 293.647059 0 474.352941ZM0 52.705882 1024 52.705882 1024-128 0-128 0 52.705882Z"  horiz-adv-x="1024" />

    
    <glyph glyph-name="skin" unicode="&#58896;" d="M519.642 710.701c62.634 0 115.388 42.346 132.013 100.227 68.283-15.833 215.039-60.696 372.325-177.456l-122.263-231.683-103.008 23.098v-471.018l-573.413-0v471.018l-103.008-23.098-122.267 231.683c169.583 125.885 326.921 168.227 386.795 180.659 15.57-59.504 69.052-103.43 132.825-103.43z"  horiz-adv-x="1024" />

    
    <glyph glyph-name="tuichu1" unicode="&#58916;" d="M816.718 712.278l0 59.597c0 32.78-26.08 59.6-57.74 59.6L124.6 831.475c-32.037 0-57.74-26.82-57.74-59.6l0-774.783c0-32.78 25.705-59.595 57.74-59.595l634.378 0c31.66 0 57.74 26.815 57.74 59.595l0 59.6L181.964 56.692 181.964 712.278 816.718 712.278zM960.877 384.486 701.238 652.678l0-178.795L355.179 473.883l0-178.797 346.059 0 0-178.795L960.877 384.486z"  horiz-adv-x="1024" />

    
    <glyph glyph-name="diannao" unicode="&#58898;" d="M898.196 785.669h-771.82c-35.52 0-64.318-28.767-64.318-64.318v-514.515c0-35.522 28.798-64.319 64.318-64.319h321.592v-96.478H287.171c-17.743 0-32.16-14.415-32.16-32.159v-32.155h514.548V13.88c0 17.744-14.415 32.159-32.16 32.159H576.603v96.478h321.592c35.52 0 64.319 28.797 64.319 64.319V721.351c0 35.551-28.799 64.318-64.319 64.318zM480.127 206.835c0 17.744 14.414 32.158 32.159 32.158 17.743 0 32.158-14.414 32.158-32.158 0-17.777-14.415-32.192-32.158-32.192-17.743 0.001-32.159 14.415-32.159 32.192z m-353.752 64.319V721.351h771.82v-450.197h-771.82z"  horiz-adv-x="1025" />

    
    <glyph glyph-name="yonghuguanli" unicode="&#59134;" d="M881.202 167.41l0.181 74.948s-49.469 9.787-50.286 13.11c-4.501 17.791-10.748 33.387-18.753 47.876 21.524-26.353 49.387-2.756 49.387-2.756l-55.777 74.313s-36.164-29.772-45.158-34.043c-4.178 1.612-8.599 3.078-13.25 4.423-4.863 1.204-18.286 48.865-18.286 48.865l-75.091 0.607s-8.124-46.155-20.287-49.287c-4.050-1.19-8.124-2.736-12.192-4.585-9.008 4.385-45.143 34.614-45.143 34.614l-55.772-75.502s27.961-28.188 29.838-37.612c-5.797-13.994-9.78-30.207-11.154-47.156-4.212 33.893-38.341 27.134-38.341 27.134l0.144-74.947s39.726-8.273 47.268-14.918c6.493-17.415 15.345-32.445 26.358-45.605-30.229 21.515-54.704 2.409-54.704 2.409l57.557-74.926s45.175 29.241 52.617 30.922c3.691-1.624 7.448-3.107 11.276-4.431 6.824-2.379 11.609-45.999 11.609-45.999l75.021-0.171s2.519 42.814 8.009 44.517c16.801 5.297 31.409 12.892 44.368 22.574-22.122-19.056 7.514-48.598 7.514-48.598l74.168 75.521s-27.529 18.998-35.126 29.247c7.492 15.024 12.724 32.506 14.712 50.959-6.515-31.043 39.289-21.499 39.289-21.499zM690.366 110.615c-52.251 0-94.644 42.352-94.644 94.613 0 52.254 42.393 94.614 94.644 94.614s94.642-42.361 94.642-94.614c0-52.259-42.391-94.613-94.642-94.613zM449.609 398.35c86.069 0 173.706 84.643 173.706 174.229 0 89.56-83.407 180.728-169.519 180.728-86.031 0-171.625-93.377-171.625-182.908 0-89.594 81.363-172.049 167.438-172.049zM487.472 361.049s-111.227 11.93-192.637-35.282c-81.413-47.212-130.15-121.493-151.694-188.65-10.792-33.756 146.855-50.917 303.649-50.385 52.033 0.185 16.612 42.874 16.612 97.102 0 123.497 105.433 177.216 24.070 177.216zM487.472 361.049z"  horiz-adv-x="1024" />

    
    <glyph glyph-name="caozuo" unicode="&#58957;" d="M840.4 448.6c-19.5 20.5-46 31.9-74.8 31.9h-2c-8.1 0-15.9-0.9-23.6-2.8-19.4 26.3-49.6 42-83.3 42-8.6 0-17.1-1-25.4-3-19.4 26.4-49.7 42.3-83.5 42.3-1.2 0-2.3 0-3.5-0.1v34.9c0 28.2-10.3 55.3-28.9 76.1-19.9 22.3-46.8 34.5-75.8 34.5-58.1 0-107.2-50.7-107.2-110.6V380c-19 14.8-43.2 22.5-69.3 21.8-28.5-0.7-55.2-11.6-73.3-29.7-18.5-18.5-31.2-44-34.7-69.8-4.4-32.6 5.9-63.4 29.1-86.6l0.1-0.1 210-208.6c5.3-5.3 11.4-10.1 18.1-14.3 41.5-33.4 90.8-55.6 193.5-55.6 108.6 0 181.1 29.1 221.7 88.8 34.7 51.1 41.8 116.3 41.8 198.6V373.8c0.2 28.4-10.2 55-29 74.8z m-34.8-224.1c0-70.4-5.2-125-30.8-162.6-17.7-26.1-54.5-60.8-168.8-60.8-85.4 0-122.5 16.3-154.7 42.5-1.2 0.9-2.4 1.8-3.7 2.6-3.2 1.9-5.8 4-8.1 6.2L229.6 261.1c-22.7 22.8-6 54.2 5.6 65.8 6.4 6.4 17.8 10.6 29.7 10.9 12.6 0.3 24-3.7 31.4-11l45.7-45.5c9.2-9.1 22.9-11.8 34.9-6.9 11.9 5 19.7 16.6 19.7 29.6V593.8c0 24.4 20.6 46.6 43.2 46.6 24.4 0 40.7-24.1 40.7-46.6v-35.1c-0.3-1.9-0.5-3.8-0.5-5.8v-169.2c0-17.7 14.3-32 32-32s32 14.3 32 32V494.1c1.6 0.6 3 0.9 4 0.9 16.4 0 29.9-9.1 36.8-24.6V352c0-17.7 14.3-32 32-32s32 14.3 32 32V455c2.7 0.5 5.3 0.8 8 0.8 16.4 0 29.9-9.1 36.8-24.6V319c0-17.7 14.3-32 32-32s32 14.3 32 32v97c2 0.3 4 0.5 6.1 0.5h2c14.1 0 23.2-6.5 28.3-11.9 7.5-7.9 11.6-18.8 11.6-30.8v-149.3zM281.4 610.7c17.7 0 32 14.3 32 32 0 68.8 56 124.8 124.8 124.8S563 711.5 563 642.7c0-17.7 14.3-32 32-32s32 14.3 32 32c0 104.1-84.7 188.8-188.8 188.8s-188.8-84.7-188.8-188.8c0-17.7 14.3-32 32-32z"  horiz-adv-x="1024" />

    
    <glyph glyph-name="caidanguanli" unicode="&#58930;" d="M947.38432 82.88768l-44.51328 30.52032c0 5.71904 1.9456 11.43808 1.9456 19.07712 0 7.6288 0 13.33248-1.9456 19.07712l40.64768 32.41472c3.8656 3.82464 3.8656 7.61856 1.92 11.43808l-38.70208 66.72896c-1.92512 1.90976-5.79584 3.82464-11.60704 1.90976l-48.37888-19.07712c-9.68192 7.61856-21.29408 13.35296-32.91648 19.07712l-7.73632 49.58208c1.93024 5.7088-3.8656 9.51296-7.74656 9.51296h-77.42976c-3.87072 0-9.6768-3.80416-9.6768-7.61344l-7.73632-51.4816c-11.6224-3.80928-21.29408-11.43808-32.90112-19.07712l-46.46912 19.07712c-5.79584 1.91488-9.66144 0-13.5424-3.80928l-38.7072-66.7392c-1.94048-1.90976 0-7.61856 3.88096-11.4432l40.63232-30.49984c0-5.73952-1.92512-11.4432-1.92512-19.07712s0-13.35296 1.92512-19.07712l-40.63232-32.4352c-3.88096-3.80928-3.88096-7.61344-1.94048-11.42272l38.7072-66.7392c1.94048-1.91488 5.79584-3.8144 11.60192-1.91488l48.37888 19.08224c9.68704-7.61856 21.29408-13.3376 32.9216-19.08224l7.7312-49.56672c0-3.82464 3.88096-7.61344 9.68192-7.61344h77.42464c3.8656 0 9.6768 3.80928 9.6768 7.61344l7.73632 49.56672c11.61728 5.73952 23.2192 11.43808 32.896 19.08224l48.384-19.08224c3.88096-1.89952 9.68192 0 11.6224 3.81952l38.7072 66.72896c1.96608 3.82464 1.96608 9.52832-1.91488 11.4432z m-187.73504-17.16224c-36.78208 0-67.74784 30.52032-67.74784 66.74432 0 36.21888 30.97088 66.72896 67.74784 66.72896s67.75296-30.50496 67.75296-66.72896-30.97088-66.74432-67.75296-66.74432z m-246.8864 67.69664c0 128.9728 104.54016 233.51296 233.51808 233.51296 9.91744 0 19.61984-0.81408 29.18912-2.01216V746.40384a43.776 43.776 0 0 1-43.78624 43.78112H147.8912a43.776 43.776 0 0 1-43.78624-43.78112v-729.74848a43.776 43.776 0 0 1 43.78624-43.78624h429.10208c-39.71072 41.86112-64.2304 98.28352-64.2304 160.55296zM177.08032 702.6176h525.41952v-43.78624H177.08032V702.6176z m0-189.73184h496.2304v-43.78624h-496.2304v43.78624z m0-175.13984H556.544v-43.78624H177.08032v43.78624z m321.09056-218.92096H177.08032v43.78112h321.09056v-43.78112z"  horiz-adv-x="1024" />

    
    <glyph glyph-name="ccgl-shujuzidian-1" unicode="&#58880;" d="M541.952 148.779c0 0.010 0 0.022 0 0.035 0 112.8 91.442 204.242 204.242 204.242 0.012 0 0.023 0 0.036 0 24.049 0 47.004-4.344 68.421-12.008v401.95s-5.576 39.72-34.211 39.72h-68.422c0 19.775-18.885 34.211-38.351 34.211h-576.428c-19.466 0-35.238-16.080-35.238-35.853v-711.906s37.462-107.595 99.145-107.595h503.285c-72.693 32.385-122.455 103.99-122.478 187.221zM533.845 48.779h36.503M551.804 85.967l-420.903-0.239c0-24.667 36.367-36.949 36.367-36.949h403.079M709.587 358.598l-0.035-8.894M746.229 353.021l-0.548 376.736h-34.211l-1.95-380.055zM958.681 167.493l-29.934-9.34c0.855-6.432 1.813-12.761 1.813-19.432 0-6.603-1.061-13.001-2.053-19.329l30.174-9.408c11.394-3.306 19.582-13.648 19.582-25.904 0-3.008-0.493-5.9-1.402-8.6-4.837-14.145-20.779-21.911-35.729-17.292l-30.517 9.442c-13.156-23.245-31.507-42.153-53.557-55.588l48.7-0.518c3.395-4.402 5.44-9.996 5.44-16.066 0-9.12-4.617-17.164-11.642-21.917-4.738-3.336-10.515-5.295-16.75-5.295-9.32 0-17.618 4.38-22.946 11.193l-18.762 24.765c-17.384-8.404-37.674-13.803-59.092-14.957l20.674-27.5c0-14.984-12.727-27.232-28.396-27.232-15.703 0-28.396 12.179-28.396 27.232v30.003c-21.367 4.057-40.35 11.908-57.101 22.883l-0.031-35.131c-5.404-6.859-13.709-11.223-23.034-11.223-6.228 0-12.002 1.947-16.745 5.264-7.002 4.761-11.603 12.797-11.603 21.907 0 6.073 2.045 11.668 5.483 16.136l18.736 24.775c-18.219 17.827-31.836 40.287-38.947 65.476l-15.142-43.684c-14.984-4.721-30.961 3.147-35.785 17.483-0.845 2.5-1.331 5.379-1.331 8.373 0 12.25 8.16 22.594 19.342 25.893l30.127 9.354c-0.821 6.432-1.813 12.83-1.813 19.432 0 6.671 1.095 13.034 2.053 19.432l-30.174 9.34c-14.984 4.688-23.058 20.048-18.201 34.348 4.823 14.301 20.8 22.101 35.785 17.516l30.482-9.511c6.569 11.358 14.164 22.134 23.503 31.577l-18.611 24.53c-3.394 4.409-5.438 10.010-5.438 16.088 0 9.116 4.601 17.158 11.608 21.93 4.737 3.323 10.511 5.273 16.74 5.273 9.336 0 17.648-4.384 22.989-11.206l18.727-24.765c17.426 8.433 37.766 13.852 59.239 15.014l-20.785 27.443c0 15.053 12.692 27.266 28.396 27.266 15.669 0 28.396-12.144 28.396-27.266v-29.934c13.582-2.395 26.308-6.945 38.42-12.487l18.713 24.7c5.404 6.863 13.712 11.229 23.040 11.229 6.211 0 11.97-1.936 16.706-5.238 12.597-8.832 15.402-25.836 6.2-38.015l-18.817-24.803c9.306-9.408 17.755-19.638 24.291-31.064l29.833 9.272c14.95 4.619 30.892-3.216 35.785-17.516s-3.319-29.695-18.234-34.348zM774.35 234.034c-54.876 0-99.418-42.696-99.418-95.347s44.543-95.279 99.418-95.279 99.384 42.628 99.384 95.279-44.475 95.347-99.384 95.347z"  horiz-adv-x="1054" />

    
    <glyph glyph-name="gonggao" unicode="&#59007;" d="M580.49024 784.97792l-0.05632 0.78336-0.06144 0.70656c-0.0256 0.31232-0.07168 0.61952-0.10752 0.92672l-0.0768 0.54272c-0.04608 0.3328-0.10752 0.66048-0.16384 0.98816a12.82048 12.82048 0 0 1-0.08704 0.47104c-0.06656 0.3328-0.14336 0.66048-0.21504 0.98816l-0.10752 0.47104c-0.08704 0.31744-0.16896 0.62976-0.26112 0.94208l-0.13824 0.50176a57.2672 57.2672 0 0 1-0.2816 0.8704c-0.06144 0.18944-0.12288 0.384-0.19456 0.57344l-0.28672 0.75776c-0.08704 0.22016-0.16384 0.44032-0.26112 0.65536a14.72512 14.72512 0 0 1-0.28672 0.65024l-0.32768 0.7424-0.27136 0.54784c-0.128 0.26624-0.27648 0.5376-0.41984 0.80384a20.40832 20.40832 0 0 1-0.7424 1.31072l-0.25088 0.39936c-0.1792 0.28672-0.35328 0.57344-0.54784 0.85504-0.08192 0.128-0.17408 0.256-0.26112 0.37888l-0.59392 0.83456a10.82368 10.82368 0 0 1-0.31744 0.39936c-0.19456 0.256-0.38912 0.51712-0.59904 0.768l-0.41984 0.49152c-0.18432 0.20992-0.3584 0.42496-0.55296 0.64a33.36192 33.36192 0 0 1-1.03936 1.08032l-0.32256 0.31232c-0.25088 0.24064-0.50176 0.4864-0.76288 0.72192-0.19968 0.19456-0.41472 0.36864-0.62976 0.55296-0.16384 0.14336-0.32256 0.28672-0.49152 0.42496-0.25088 0.2048-0.50688 0.39936-0.76288 0.59392-0.128 0.10752-0.27648 0.21504-0.40448 0.31744-0.27648 0.2048-0.54784 0.39424-0.82432 0.5888a17.86368 17.86368 0 0 1-1.23904 0.81408l-0.4096 0.256c-0.2816 0.16384-0.55296 0.32256-0.8448 0.48128l-0.46592 0.26112c-0.26112 0.14336-0.53248 0.27648-0.79872 0.4096l-0.54272 0.27648-0.73216 0.32768a15.60064 15.60064 0 0 1-0.67072 0.29184c-0.21504 0.09216-0.43008 0.16896-0.64512 0.256a17.2544 17.2544 0 0 1-1.3312 0.48128 24.64768 24.64768 0 0 1-1.37216 0.42496l-0.9472 0.256c-0.1536 0.04096-0.31232 0.07168-0.46592 0.10752a34.0736 34.0736 0 0 1-0.98816 0.21504l-0.48128 0.08704-0.98816 0.16896-0.54272 0.06656a17.03936 17.03936 0 0 1-0.92672 0.10752c-0.23552 0.0256-0.48128 0.04096-0.72192 0.05632-0.256 0.01536-0.50688 0.04096-0.76288 0.0512a31.57504 31.57504 0 0 1-1.38752 0.03584H549.888a26.03008 26.03008 0 0 1-2.14016-0.08704c-0.256-0.02048-0.512-0.03072-0.76288-0.06144-0.30208-0.0256-0.5888-0.06656-0.88576-0.10752l-0.58368-0.07168-0.9472-0.16384-0.52224-0.09216a28.22656 28.22656 0 0 1-0.9472-0.2048l-0.512-0.11776a29.73696 29.73696 0 0 1-0.90624-0.24576l-0.5376-0.1536c-0.29184-0.08192-0.55296-0.17408-0.82944-0.26624-0.2048-0.06656-0.41472-0.13312-0.6144-0.20992a29.66528 29.66528 0 0 1-2.03264-0.81408c-0.26112-0.11776-0.52224-0.2304-0.77312-0.35328l-0.512-0.24576-0.83968-0.43008-0.42496-0.23552c-0.29184-0.16896-0.5888-0.32768-0.88576-0.512a26.6752 26.6752 0 0 1-1.2544-0.79872l-0.34304-0.23552c-0.29184-0.2048-0.58368-0.40448-0.86528-0.61952l-0.36352-0.28672c-0.27648-0.2048-0.5376-0.4096-0.79872-0.62976l-0.45568-0.384c-0.22528-0.19456-0.45568-0.384-0.68096-0.5888-0.25088-0.22528-0.49152-0.4608-0.73216-0.69632l-0.35328-0.32768-204.8-204.80512H200.192c-67.456 0-122.14272-54.68672-122.14272-122.14272v-186.87488c0-67.46624 54.68672-122.1376 122.14272-122.1376h123.40224l204.80512-204.81024a1.8944 1.8944 0 0 1 0.20992-0.19456c0.28672-0.28672 0.57856-0.56832 0.88064-0.83968l0.60928-0.53248c0.1792-0.1536 0.33792-0.30208 0.51712-0.44032a30.30016 30.30016 0 0 1 1.16736-0.91648c0.27648-0.20992 0.54784-0.39936 0.82944-0.5888l0.384-0.27136 0.86016-0.55296 0.39424-0.24064c0.28672-0.1792 0.57344-0.3328 0.86016-0.49664l0.44544-0.256 0.8192-0.41984c0.1792-0.08192 0.34816-0.16896 0.53248-0.26112 0.25088-0.11776 0.512-0.2304 0.75776-0.3328a17.92 17.92 0 0 1 0.62976-0.2816c0.2304-0.09216 0.45056-0.17408 0.67072-0.27136l0.74752-0.27648c0.18944-0.07168 0.38912-0.128 0.58368-0.19968l0.86016-0.27648 0.51712-0.14336c0.31232-0.09216 0.61952-0.1792 0.93184-0.25088 0.1536-0.0512 0.32256-0.08192 0.47616-0.11776l0.97792-0.20992c0.15872-0.03072 0.32256-0.0512 0.4864-0.09216l0.98304-0.16384 0.54784-0.06656c0.3072-0.04096 0.60416-0.08192 0.91648-0.11264 0.24064-0.0256 0.48128-0.03584 0.72192-0.04608 0.256-0.0256 0.512-0.0512 0.77312-0.06144 0.43008-0.0256 0.86528-0.03072 1.30048-0.03584h0.41984c0.43008 0.00512 0.85504 0.01024 1.28512 0.03584 0.26624 0.01024 0.52736 0.03584 0.78848 0.06144 0.22528 0.01024 0.46592 0.02048 0.6912 0.04608l0.9472 0.11776 0.53248 0.06144 0.9984 0.17408c0.1536 0.03072 0.31232 0.0512 0.46592 0.0768a21.504 21.504 0 0 1 0.99328 0.2304l0.4608 0.1024c0.32256 0.0768 0.62976 0.16896 0.95744 0.256l0.49152 0.14336c0.29696 0.08704 0.58368 0.1792 0.87552 0.2816l0.55808 0.18944c0.26112 0.09216 0.52224 0.18944 0.768 0.29696l0.65536 0.25088 0.66048 0.28672c0.24064 0.10752 0.4864 0.21504 0.73216 0.3328l0.55296 0.27648c0.26624 0.128 0.53248 0.26112 0.78848 0.40448l0.48128 0.26112 0.83456 0.48128c0.13312 0.09216 0.27648 0.1792 0.41984 0.26112l0.83456 0.5376 0.40448 0.28672c0.27648 0.18944 0.5376 0.37376 0.80896 0.57344l0.43008 0.3328c0.24576 0.18944 0.49664 0.37888 0.7424 0.58368 0.1792 0.13824 0.34304 0.29696 0.52736 0.45056 0.2048 0.16896 0.40448 0.3328 0.59392 0.51712 0.31744 0.27648 0.59904 0.55808 0.90112 0.8448 0.05632 0.07168 0.128 0.12288 0.19968 0.19456a27.6224 27.6224 0 0 1 1.03424 1.09056c0.17408 0.19456 0.34304 0.39936 0.51712 0.60416 0.1536 0.16896 0.31232 0.34304 0.45568 0.52736a31.40608 31.40608 0 0 1 0.91136 1.17248c0.19456 0.26112 0.384 0.53248 0.57856 0.80896a28.69248 28.69248 0 0 1 0.81408 1.23904l0.26624 0.41984 0.48128 0.83456 0.26624 0.47616c0.13312 0.26624 0.27648 0.52736 0.40448 0.78848l0.27648 0.55808c0.11264 0.24064 0.22016 0.4864 0.32256 0.73216 0.10752 0.21504 0.19968 0.44032 0.29184 0.66048 0.09216 0.20992 0.16896 0.43008 0.256 0.64512 0.09728 0.256 0.2048 0.51712 0.28672 0.768 0.0768 0.18944 0.13312 0.37888 0.19456 0.55808 0.1024 0.30208 0.19456 0.58368 0.28672 0.88576 0.04608 0.15872 0.09728 0.32768 0.13312 0.49152a26.112 26.112 0 0 1 0.26112 0.95744l0.10752 0.4608c0.08192 0.32256 0.1536 0.66048 0.22016 0.99328l0.08192 0.46592c0.06144 0.32768 0.11776 0.65536 0.16896 0.98816l0.07168 0.5376c0.04096 0.31232 0.08192 0.61952 0.10752 0.93696 0.0256 0.23552 0.03584 0.46592 0.05632 0.70144 0.0256 0.26112 0.0512 0.52736 0.06144 0.78336 0.02048 0.43008 0.0256 0.86016 0.03072 1.29024l0.00512 0.21504V783.47264l-0.00512 0.2048-0.04608 1.30048z m-61.03552-725.376l-162.0736 162.07872h-0.01536a30.43328 30.43328 0 0 1-21.12 8.48896H224.61952c-47.22176 0-85.49888 38.27712-85.49888 85.49888V453.68832c0 47.22176 38.28224 85.504 85.49888 85.504H336.24576a30.4128 30.4128 0 0 1 21.39648 8.7552v-0.00512l0.18944 0.18944 0.01024 0.00512 161.61792 161.61792v-650.15296h-0.00512zM843.4432 643.61472a30.5408 30.5408 0 1 1-43.50464-42.85952c118.36416-120.13056 116.92032-313.46688-3.21536-431.8208a30.5408 30.5408 0 0 1 42.86464-43.50976c144.16896 142.0288 145.8944 374.03136 3.85536 518.19008zM756.44416 557.89568a30.5408 30.5408 0 0 1-43.50976-42.85952c71.01952-72.07936 70.14912-188.07808-1.92512-259.09248a30.53568 30.53568 0 1 1 42.85952-43.50976c96.10752 94.68416 97.2544 249.34912 2.57536 345.46176zM669.43488 472.17152a30.5408 30.5408 0 0 1-43.50976-42.85952c23.67488-24.02816 23.38816-62.6944-0.64512-86.36928a30.53056 30.53056 0 0 1-0.31744-43.18208 30.5152 30.5152 0 0 1 43.17696-0.32256c48.05632 47.34464 48.64 124.68224 1.29536 172.73344z"  horiz-adv-x="1024" />

    
    <glyph glyph-name="suo" unicode="&#58893;" d="M928 480h-64v64c0 194.080-133.984 352-298.656 352h-106.688c-164.672 0-298.656-157.92-298.656-352v-64h-64c-52.928 0-96-43.072-96-96v-416c0-52.928 43.072-96 96-96h832c52.928 0 96 43.072 96 96v416c0 52.928-43.072 96-96 96zM224 544c0 158.816 105.28 288 234.656 288h106.688c129.376 0 234.656-129.184 234.656-288v-64h-576v64zM960-32c0-17.673-14.327-32-32-32h-832c-17.673 0-32 14.327-32 32v416c0 17.673 14.327 32 32 32h832c17.673 0 32-14.327 32-32v-416zM512 304c-53.019 0-96-42.981-96-96 0.082-30.383 14.36-57.413 36.548-74.82l0.124-62.78c0-0 0-0 0-0 0-32.766 26.562-59.328 59.328-59.328 32.766 0 59.328 26.562 59.328 59.328 0 0 0 0 0 0v62.688c22.374 17.586 36.625 44.632 36.672 75.010-0 52.922-42.981 95.902-96 95.902z"  horiz-adv-x="1024" />

    
    <glyph glyph-name="guanbiqita" unicode="&#58899;" d="M512 467.456L677.376 640 768 567.68 592 384 768 200.32 677.376 128 512 300.544 346.624 128 256 200.32 432 384 256 567.68 346.624 640 512 467.456zM0 512V768.384C0 838.848 57.28 896 127.616 896H384v-128H128v-256H0z m0-256h128v-256h256v-128H127.616A127.68 127.68 0 0 0 0-0.384V256z m1024 256h-128V768h-256V896h256.384C966.848 896 1024 838.72 1024 768.384V512z m0-256v-256.384A127.68 127.68 0 0 0 896.384-128H640v128h256v256h128z"  horiz-adv-x="1024" />

    
    <glyph glyph-name="guanbiquanbu" unicode="&#58900;" d="M512-14.222222A398.222222 398.222222 0 1 1 512 782.222222a398.222222 398.222222 0 0 1 0-796.444444z m0.455111 473.884444L364.088889 609.393778 284.444444 536.291556l152.007112-153.372445L284.444444 229.546667 364.088889 156.444444l148.366222 149.788445L660.935111 156.444444l79.587556 73.102223-152.007111 153.372444 152.007111 153.372445-79.644445 73.102222L512.455111 459.662222zM512-128A512 512 0 1 0 512 896a512 512 0 0 0 0-1024z"  horiz-adv-x="1024" />

    
    <glyph glyph-name="guanbiqitawenjian" unicode="&#58902;" d="M508.688359 462.995407l147.01449 153.327298 80.474083-64.265522-156.398394-163.223051 156.398394-163.166179-80.474083-64.265521-147.01449 153.327298-146.957618-153.384171-80.530955 64.322394 156.398394 163.223051-156.398394 163.166179 80.530955 64.265522 146.957618-153.327298zM12.023932 274.066147a509.119426 509.119426 0 0 0 1.990525 228.682888l106.635269-45.270226a395.830117 395.830117 0 0 1-1.194315-140.019217l-107.431479-43.393445z m63.924289-158.16143a509.119426 509.119426 0 0 1 160.2657-163.166179l45.270226 106.635269a395.830117 395.830117 0 0 0-98.104447 99.924355l-107.431479-43.393445z m936.001733 378.14288a509.119426 509.119426 0 0 0-1.990525-228.682888l-106.635268 45.270226a395.830117 395.830117 0 0 1 1.194315 140.019217l107.431478 43.393445z m-63.924289 158.16143a509.119426 509.119426 0 0 1-160.265699 163.166179l-45.270226-106.635268a395.830117 395.830117 0 0 0 98.104447-99.924356l107.431478 43.393445zM243.777916 820.095594l43.393445-107.431478A395.830117 395.830117 0 0 1 187.190133 614.559669l-106.635268 45.270226a509.119426 509.119426 0 0 0 163.166179 160.265699zM401.939346 883.963011a509.119426 509.119426 0 0 0 228.682888-1.990525l-45.270226-106.635269a395.830117 395.830117 0 0 1-140.019217 1.194315L401.939346 884.019883z m378.199752-936.001733a509.119426 509.119426 0 0 1 163.109307 160.2657l-106.635268 45.270226a395.830117 395.830117 0 0 0-99.924356-98.104447l43.393445-107.431479z m-158.218302-63.924289a509.119426 509.119426 0 0 0-228.682888 1.990525l45.270226 106.635269a395.830117 395.830117 0 0 1 140.019217-1.194315l43.393445-107.431479z"  horiz-adv-x="1024" />

    
    <glyph glyph-name="bumenguanli" unicode="&#58887;" d="M947.2 179.2V128l-58.3-19.4c-2.9-9.3-6.4-18.4-11-26.9l27.4-54.8-36.2-36.2-55.6 27.8c-8.3-4.3-16.8-8.1-25.9-11L768-51.2h-51.2l-19.6 58.7c-9.1 2.8-17.6 6.6-25.9 11l-55.6-27.8-36.2 36.2 27.4 54.8c-4.6 8.5-8.1 17.5-11 26.9L537.6 128v51.2l58.3 19.4c2.9 9.3 6.4 18.4 11 26.9l-27.4 54.8 36.2 36.2 55.6-27.8c8.3 4.3 16.8 8.2 25.9 11l19.6 58.7H768l19.6-58.7c9.1-2.8 17.6-6.6 25.9-11l55.6 27.8 36.2-36.2-27.4-54.8c4.6-8.5 8.1-17.5 11-26.9l58.3-19.4z m-204.8 51.2c-42.4 0-76.8-34.4-76.8-76.8s34.4-76.8 76.8-76.8 76.8 34.4 76.8 76.8-34.4 76.8-76.8 76.8z m-74.2 144.2l-2.6-7.9v94.1H460.8v-102.4h25.6c27.1 0 49.1-21.2 50.9-47.9l-20.1-20.1 16.5-33 3.9-7.8v-16.4l-16.2-5.4-35-11.7v-62.5H384c-28.3 0-51.2 22.9-51.2 51.2V307.2c0 28.3 22.9 51.2 51.2 51.2h25.6V460.8H204.8v-102.4h25.6c28.3 0 51.2-22.9 51.2-51.2v-102.4c0-28.3-22.9-51.2-51.2-51.2H128c-28.3 0-51.2 22.9-51.2 51.2V307.2c0 28.3 22.9 51.2 51.2 51.2h25.6v128c0 14.1 11.5 25.6 25.6 25.6h230.4V614.4H384c-28.3 0-51.2 22.9-51.2 51.2V768c0 28.3 22.9 51.2 51.2 51.2h102.4c28.3 0 51.2-22.9 51.2-51.2v-102.4c0-28.3-22.9-51.2-51.2-51.2h-25.6V512h230.4c14.1 0 25.6-11.5 25.6-25.6v-76.8h-36.9l-11.7-35z"  horiz-adv-x="1024" />

    
    <glyph glyph-name="jiaoseguanli" unicode="&#58934;" d="M608.256 448.512c38.912 16.384 79.872 24.576 121.856 24.576h12.288c19.456 50.176 24.576 109.568 15.36 166.912C734.208 771.072 610.304 859.136 479.232 836.608 348.16 813.056 238.592 711.68 261.12 579.584c5.12-28.672 18.432-72.704 34.816-105.472L59.392 132.096C51.2 119.808 46.08 97.28 48.128 81.92l10.24-58.368c-10.24 56.32 3.072-20.48 10.24-20.48l77.824-1.024c15.36 3.072 33.792 15.36 41.984 28.672l94.208 146.432 1.024 1.024 81.92-6.144L475.136 343.04h1.024c10.24 13.312 20.48 25.6 32.768 37.888 28.672 28.672 62.464 51.2 99.328 67.584zM110.592 96.256l-11.264-5.12 1.024 12.288L327.68 434.176l13.312-12.288c0-1.024-230.4-325.632-230.4-325.632z m345.088 607.232c35.84 52.224 106.496 64.512 157.696 27.648 51.2-36.864 63.488-107.52 27.648-159.744s-72.704-15.36-123.904 21.504-97.28 58.368-61.44 110.592zM727.04 409.6c-137.216 0-249.856-111.616-249.856-248.832S588.8-88.064 727.04-88.064c138.24 0 249.856 111.616 249.856 248.832-1.024 137.216-112.64 248.832-249.856 248.832z m144.384-351.232c0-36.864-71.68-46.08-138.24-46.08-67.584 0-139.264 8.192-139.264 46.08v10.24c0 27.648 49.152 55.296 91.136 70.656 3.072 1.024 17.408 9.216 9.216 30.72-20.48 21.504-36.864 55.296-36.864 90.112 0 52.224 33.792 78.848 74.752 78.848 39.936 0 74.752-27.648 74.752-78.848 0-33.792-15.36-67.584-36.864-89.088-8.192-24.576 5.12-29.696 7.168-30.72 44.032-14.336 93.184-41.984 93.184-70.656l1.024-11.264z"  horiz-adv-x="1024" />

    


  </font>
</defs>
</svg>
